Coordinates
version=1
nRows=29
nColumns=34
inDegrees=no

Units are S.I. units (second, meters, Newtons, ...)
If the header above contains a line with 'inDegrees', this indicates whether rotational values are in degrees (yes) or radians (no).

endheader
time	pelvis_tilt	pelvis_list	pelvis_rotation	pelvis_tx	pelvis_ty	pelvis_tz	hip_flexion_r	hip_adduction_r	hip_rotation_r	knee_angle_r	ankle_angle_r	subtalar_angle_r	mtp_angle_r	hip_flexion_l	hip_adduction_l	hip_rotation_l	knee_angle_l	ankle_angle_l	subtalar_angle_l	mtp_angle_l	lumbar_extension	lumbar_bending	lumbar_rotation	arm_flex_r	arm_add_r	arm_rot_r	elbow_flex_r	pro_sup_r	arm_flex_l	arm_add_l	arm_rot_l	elbow_flex_l	pro_sup_l
0.94	-0.0620409	0.0629334	-0.0491364	0.952337	0.958356	-0.217057	0.466255	-0.108629	-0.0978868	0.870621	0.101348	-0.24783	0	0.131746	0.0680753	-0.111573	0.267512	0.303877	0.146781	0	-0.206136	-0.365182	-0.0707354	0.00219528	-0.138596	0.211713	0.625816	2.09	0.0728589	-0.219075	-0.222215	0.508198	2.09
0.95	-0.0647824	0.0572684	-0.0455328	0.963498	0.959065	-0.218969	0.480915	-0.0998856	-0.100584	0.824484	0.114286	-0.221736	0	0.114958	0.0659968	-0.102695	0.255161	0.30224	0.141306	0	-0.203471	-0.349865	-0.0728735	0.00116883	-0.137945	0.194521	0.621567	2.09	0.0758599	-0.215699	-0.205869	0.510543	2.09
0.96	-0.0673943	0.052017	-0.0418287	0.974751	0.959569	-0.220913	0.49336	-0.0920195	-0.103938	0.77573	0.128159	-0.190846	0	0.0975224	0.0644423	-0.0931307	0.241933	0.299898	0.133943	0	-0.200555	-0.334551	-0.074889	7.36152e-05	-0.137362	0.176919	0.617325	2.09	0.0785969	-0.212397	-0.189454	0.513583	2.09
0.97	-0.0700717	0.0472524	-0.0381462	0.986095	0.959824	-0.222875	0.50395	-0.0846818	-0.107141	0.724748	0.140828	-0.157501	0	0.0799011	0.0632215	-0.0846013	0.228345	0.297881	0.127011	0	-0.197079	-0.31939	-0.0770295	-0.000802796	-0.137024	0.160333	0.612802	2.09	0.0806262	-0.209063	-0.174485	0.517931	2.09
0.98	-0.0724666	0.0430528	-0.0344216	0.997551	0.95984	-0.224876	0.512287	-0.0782961	-0.110879	0.671962	0.15253	-0.120288	0	0.0616013	0.0625993	-0.0761092	0.21419	0.295914	0.119129	0	-0.193471	-0.304449	-0.0792811	-0.00165155	-0.136927	0.144142	0.608406	2.09	0.0821414	-0.205809	-0.160151	0.523302	2.09
0.99	-0.0740602	0.039997	-0.0305699	1.00916	0.959644	-0.226981	0.517987	-0.0742566	-0.116871	0.61824	0.164606	-0.0758671	0	0.0404398	0.0648534	-0.0553035	0.196108	0.287041	0.0907526	0	-0.190334	-0.290283	-0.081766	-0.00262898	-0.137057	0.127795	0.604471	2.09	0.0833346	-0.202727	-0.145678	0.52937	2.09
1	-0.075478	0.0368636	-0.0270293	1.02087	0.959172	-0.229015	0.521647	-0.0691981	-0.121085	0.563056	0.171087	-0.0352242	0	0.0207624	0.0648224	-0.0494915	0.181981	0.28709	0.0854281	0	-0.186831	-0.275877	-0.0840864	-0.00339983	-0.137439	0.112546	0.600475	2.09	0.0838935	-0.19986	-0.131974	0.536461	2.09
1.01	-0.075981	0.034514	-0.0235491	1.03276	0.958478	-0.231091	0.522823	-0.065669	-0.127107	0.507894	0.176886	0.00932269	0	-0.000797526	0.0660475	-0.0395878	0.166467	0.285015	0.0730746	0	-0.183877	-0.262006	-0.0864025	-0.0043109	-0.137959	0.0969607	0.596978	2.09	0.0842353	-0.197362	-0.117383	0.543881	2.09
1.02	-0.0756839	0.0327162	-0.0202649	1.0448	0.957555	-0.233169	0.521857	-0.0628295	-0.133734	0.453192	0.181399	0.054097	0	-0.0239596	0.0679897	-0.02662	0.149983	0.281254	0.0552867	0	-0.181313	-0.248517	-0.0886634	-0.00523489	-0.1386	0.0813851	0.593775	2.09	0.0842557	-0.195276	-0.102026	0.55162	2.09
1.03	-0.0745985	0.0313467	-0.0171522	1.05702	0.956406	-0.235239	0.519035	-0.0606376	-0.141641	0.39969	0.186201	0.0992566	0	-0.0489131	0.0705559	-0.00855967	0.132157	0.274306	0.0288152	0	-0.179174	-0.235313	-0.090864	-0.00621443	-0.139288	0.0654929	0.590949	2.09	0.0840075	-0.193676	-0.0855276	0.559493	2.09
1.04	-0.0731596	0.0299892	-0.0142697	1.06937	0.955016	-0.237238	0.51486	-0.0577826	-0.148026	0.347307	0.190448	0.138762	0	-0.074312	0.0726372	0.00931173	0.114721	0.267184	0.0020485	0	-0.177012	-0.222081	-0.0930545	-0.00707572	-0.139974	0.0498069	0.588206	2.09	0.0832894	-0.192591	-0.0684065	0.567682	2.09
1.05	-0.0716689	0.028474	-0.0115148	1.08182	0.953385	-0.239136	0.509765	-0.0539814	-0.151998	0.296331	0.194593	0.170228	0	-0.0990767	0.0737579	0.0232552	0.0990602	0.262337	-0.0186877	0	-0.174604	-0.208721	-0.0953272	-0.00780733	-0.140537	0.0342507	0.585499	2.09	0.0820949	-0.192076	-0.050757	0.576221	2.09
1.06	-0.0702206	0.0268236	-0.00874875	1.09438	0.951535	-0.240936	0.504181	-0.0496792	-0.155002	0.247683	0.199607	0.194887	0	-0.123365	0.0742288	0.0366084	0.0845266	0.257597	-0.0386196	0	-0.171978	-0.195275	-0.0976303	-0.00859399	-0.140831	0.0181017	0.583062	2.09	0.080665	-0.192167	-0.0321763	0.584909	2.09
1.07	-0.0693122	0.0251477	-0.00592641	1.10699	0.949463	-0.242615	0.49898	-0.0448836	-0.156113	0.202189	0.204608	0.210278	0	-0.145849	0.0739919	0.0460467	0.072543	0.255292	-0.0519247	0	-0.168648	-0.181967	-0.100146	-0.00927599	-0.140811	0.00217136	0.580417	2.09	0.0788466	-0.192795	-0.013705	0.593986	2.09
1.08	-0.0685688	0.0234214	-0.00304498	1.11966	0.947238	-0.244175	0.494079	-0.0397873	-0.156123	0.16098	0.209302	0.216996	0	-0.167272	0.0732325	0.0545737	0.0623837	0.253249	-0.0632804	0	-0.165152	-0.168761	-0.102469	-0.0101589	-0.140327	-0.0148089	0.577957	2.09	0.0772028	-0.193963	0.00555609	0.602905	2.09
1.09	-0.068118	0.0218365	-0.000163422	1.13241	0.944888	-0.245615	0.490092	-0.0346765	-0.154876	0.125508	0.213298	0.215192	0	-0.187183	0.0721896	0.0617786	0.0546153	0.251714	-0.0716624	0	-0.161367	-0.155898	-0.104593	-0.0111812	-0.139404	-0.0323337	0.575363	2.09	0.0757233	-0.195519	0.0248364	0.611567	2.09
1.1	-0.0671065	0.0199978	0.00257861	1.14531	0.942517	-0.246914	0.483686	-0.0274774	-0.132079	0.0914762	0.207351	0.174503	0	-0.208047	0.0708331	0.0781036	0.0462498	0.242719	-0.0949696	0	-0.158203	-0.142927	-0.105889	-0.0127697	-0.137894	-0.0521685	0.57331	2.09	0.0749034	-0.197351	0.044949	0.619293	2.09
1.11	-0.0669352	0.0190207	0.00525356	1.15826	0.940064	-0.248162	0.48307	-0.0239289	-0.135679	0.0732042	0.213732	0.171612	0	-0.224062	0.0697036	0.0787992	0.045583	0.244977	-0.0899235	0	-0.15417	-0.131049	-0.107678	-0.0137837	-0.136503	-0.0689173	0.569891	2.09	0.0735985	-0.199106	0.0623125	0.627025	2.09
1.12	-0.0661978	0.0179515	0.00763534	1.17138	0.937678	-0.249311	0.482959	-0.0203716	-0.138004	0.0634411	0.220015	0.165576	0	-0.238954	0.0683018	0.0775657	0.048332	0.247897	-0.0806459	0	-0.150822	-0.119136	-0.108553	-0.0152694	-0.13476	-0.0875287	0.567152	2.09	0.0729	-0.20076	0.0797301	0.633537	2.09
1.13	-0.064995	0.0166031	0.00968269	1.18467	0.935386	-0.250368	0.483448	-0.0168556	-0.140175	0.0623768	0.226349	0.159945	0	-0.252306	0.0664605	0.0733348	0.0550408	0.252014	-0.0657168	0	-0.147972	-0.106957	-0.108768	-0.0169517	-0.132995	-0.10639	0.56476	2.09	0.0723247	-0.202057	0.0959924	0.639159	2.09
1.14	-0.0633447	0.0146174	0.011364	1.19814	0.93322	-0.251324	0.484282	-0.0130989	-0.142764	0.0693137	0.231585	0.15645	0	-0.263424	0.0636113	0.061772	0.0669721	0.259847	-0.0385393	0	-0.145572	-0.0940832	-0.108173	-0.0189291	-0.131279	-0.125752	0.562991	2.09	0.0718009	-0.202867	0.111142	0.643826	2.09
1.15	-0.0617711	0.0116129	0.0127072	1.21177	0.931167	-0.252141	0.485971	-0.00881892	-0.147455	0.0835475	0.234331	0.15768	0	-0.269405	0.0582651	0.0276157	0.0886441	0.280174	0.0248966	0	-0.142991	-0.0801597	-0.107044	-0.0209698	-0.129827	-0.144152	0.561372	2.09	0.0708358	-0.203037	0.124034	0.647833	2.09
1.16	-0.0602306	0.00716798	0.0136164	1.22562	0.929233	-0.252821	0.487436	-0.00308172	-0.148992	0.102128	0.230097	0.155114	0	-0.273672	0.0505827	-0.00766998	0.113416	0.296663	0.0871819	0	-0.140094	-0.0646882	-0.105383	-0.0230878	-0.128944	-0.160768	0.559749	2.09	0.0690932	-0.202341	0.13415	0.651208	2.09
1.17	-0.0589136	0.00104086	0.0139825	1.23966	0.927424	-0.253326	0.488628	0.00472715	-0.145922	0.123367	0.216992	0.146274	0	-0.275879	0.0399885	-0.045569	0.141628	0.309783	0.150362	0	-0.136623	-0.0474454	-0.102995	-0.0253841	-0.128641	-0.175729	0.55811	2.09	0.0666049	-0.200774	0.141781	0.653685	2.09
1.18	-0.0578657	-0.00663813	0.0136126	1.25391	0.925765	-0.253636	0.489853	0.0146276	-0.139138	0.14667	0.196055	0.132877	0	-0.276419	0.0266428	-0.0837944	0.172468	0.317833	0.210786	0	-0.132511	-0.0286175	-0.0997651	-0.0278099	-0.128945	-0.188784	0.556239	2.09	0.0633745	-0.198349	0.146975	0.65511	2.09
1.19	-0.0569622	-0.0152339	0.0123449	1.26835	0.924299	-0.253785	0.491774	0.0255828	-0.13259	0.172901	0.172068	0.121846	0	-0.27655	0.0125268	-0.112337	0.203468	0.316334	0.25352	0	-0.127947	-0.00887392	-0.0956834	-0.0302698	-0.129865	-0.199825	0.553974	2.09	0.0594695	-0.195069	0.149821	0.655378	2.09
1.2	-0.0563292	-0.0247307	0.0101738	1.28293	0.923039	-0.25375	0.49481	0.0374769	-0.126875	0.202191	0.148963	0.113782	0	-0.274211	-0.00371899	-0.142241	0.238428	0.310777	0.295967	0	-0.122888	0.0116904	-0.0908091	-0.0326791	-0.131294	-0.208991	0.551245	2.09	0.0549467	-0.191024	0.150438	0.654515	2.09
1.21	-0.0560806	-0.0352444	0.0071043	1.29762	0.921986	-0.253519	0.499158	0.0502477	-0.123093	0.234653	0.130996	0.109496	0	-0.268106	-0.0237413	-0.179724	0.279927	0.303451	0.347549	0	-0.1173	0.0331364	-0.0852344	-0.0349732	-0.133142	-0.216548	0.548116	2.09	0.0498001	-0.186242	0.148806	0.652674	2.09
1.22	-0.0549011	-0.0442102	0.00318242	1.31239	0.921314	-0.253312	0.50313	0.0610139	-0.120525	0.270174	0.122094	0.109175	0	-0.262859	-0.0378774	-0.18902	0.319078	0.280359	0.35379	0	-0.112867	0.0528502	-0.0793863	-0.0366697	-0.13536	-0.222316	0.544356	2.09	0.0443081	-0.180776	0.144921	0.649934	2.09
